<svg width="18" height="15" viewBox="0 0 18 15" fill="none" xmlns="http://www.w3.org/2000/svg">
<path d="M3.73879 15C4.13662 15 4.51815 14.842 4.79945 14.5607C5.08076 14.2794 5.23879 13.8978 5.23879 13.5V9C5.23879 8.60218 5.08076 8.22064 4.79945 7.93934C4.51815 7.65804 4.13662 7.5 3.73879 7.5V6.75C3.73879 5.35761 4.29192 4.02225 5.27648 3.03769C6.26105 2.05312 7.59641 1.5 8.98879 1.5C10.3812 1.5 11.7165 2.05312 12.7011 3.03769C13.6857 4.02225 14.2388 5.35761 14.2388 6.75V7.5C13.841 7.5 13.4594 7.65804 13.1781 7.93934C12.8968 8.22064 12.7388 8.60218 12.7388 9V13.5H10.4888C10.2899 13.5 10.0991 13.579 9.95846 13.7197C9.81781 13.8603 9.73879 14.0511 9.73879 14.25C9.73879 14.4489 9.81781 14.6397 9.95846 14.7803C10.0991 14.921 10.2899 15 10.4888 15H14.2388C15.0983 14.9974 15.9308 14.6997 16.597 14.1566C17.2632 13.6135 17.7227 12.858 17.8984 12.0167C18.0741 11.1753 17.9555 10.2991 17.5623 9.5348C17.1692 8.77046 16.5254 8.16438 15.7388 7.818V6.75C15.7388 4.95979 15.0276 3.2429 13.7618 1.97703C12.4959 0.711159 10.779 0 8.98879 0C7.19858 0 5.48169 0.711159 4.21582 1.97703C2.94995 3.2429 2.23879 4.95979 2.23879 6.75V7.818C1.45216 8.16438 0.808394 8.77046 0.41526 9.5348C0.0221255 10.2991 -0.0965108 11.1753 0.0792117 12.0167C0.254934 12.858 0.714349 13.6135 1.38055 14.1566C2.04674 14.6997 2.87928 14.9974 3.73879 15V15Z" fill="#EA580C"/>
</svg>
