<svg width="19" height="16" viewBox="0 0 19 16" fill="none" xmlns="http://www.w3.org/2000/svg">
<path d="M17.0798 5.47096C16.7281 5.06567 16.2934 4.74067 15.8052 4.51798C15.317 4.29529 14.7866 4.1801 14.25 4.18021H11.2582L11.5103 2.64946C11.5994 2.11041 11.4918 1.55727 11.2071 1.09092C10.9225 0.624573 10.4796 0.276099 9.9594 0.109059C9.43918 -0.0579822 8.87625 -0.0324596 8.37328 0.180971C7.87031 0.394402 7.46082 0.781519 7.2195 1.27171L5.784 4.18021H3.75C2.7558 4.18141 1.80267 4.57688 1.09966 5.27988C0.396661 5.98288 0.00119089 6.93602 0 7.93021L0 11.6802C0.00119089 12.6744 0.396661 13.6275 1.09966 14.3306C1.80267 15.0336 2.7558 15.429 3.75 15.4302H13.725C14.6276 15.4265 15.4989 15.0989 16.1803 14.5071C16.8618 13.9152 17.3082 13.0984 17.4382 12.2052L17.967 8.45521C18.0415 7.92326 18.0008 7.38152 17.8477 6.86666C17.6946 6.3518 17.4327 5.87583 17.0798 5.47096ZM1.5 11.6802V7.93021C1.5 7.33348 1.73705 6.76118 2.15901 6.33922C2.58097 5.91727 3.15326 5.68021 3.75 5.68021H5.25V13.9302H3.75C3.15326 13.9302 2.58097 13.6932 2.15901 13.2712C1.73705 12.8492 1.5 12.277 1.5 11.6802ZM16.4783 8.24446L15.9487 11.9945C15.8713 12.53 15.6043 13.0199 15.1962 13.3751C14.7881 13.7304 14.266 13.9273 13.725 13.9302H6.75V5.48071C6.82068 5.41914 6.87919 5.34485 6.9225 5.26171L8.56425 1.93546C8.62582 1.82441 8.71286 1.72955 8.81822 1.65869C8.92358 1.58782 9.04426 1.54296 9.17033 1.52781C9.2964 1.51265 9.42426 1.52763 9.54342 1.57151C9.66258 1.61539 9.76962 1.68692 9.85575 1.78021C9.92944 1.8659 9.9833 1.96679 10.0135 2.07569C10.0437 2.18459 10.0495 2.29881 10.0305 2.41021L9.6345 4.81021C9.61712 4.91745 9.62324 5.02718 9.65244 5.13182C9.68164 5.23645 9.73323 5.3335 9.80363 5.41624C9.87402 5.49897 9.96156 5.56543 10.0602 5.61101C10.1588 5.65659 10.2661 5.6802 10.3748 5.68021H14.25C14.5721 5.68017 14.8904 5.74926 15.1834 5.88282C15.4765 6.01638 15.7374 6.2113 15.9487 6.45439C16.1599 6.69748 16.3165 6.98309 16.4079 7.29191C16.4992 7.60073 16.5232 7.92557 16.4783 8.24446Z" fill="#EA580C"/>
</svg>
